<svg width="29" height="38" viewBox="0 0 29 38" fill="none" xmlns="http://www.w3.org/2000/svg">
<path d="M12.4224 10.4865V20.3063C12.4224 20.5165 12.5558 20.6516 12.8224 20.7117C13.8298 20.8318 14.6298 20.8919 15.2224 20.8919C17.3558 20.8919 19.0002 20.3964 20.1558 19.4054C21.341 18.3844 21.9335 16.973 21.9335 15.1712C21.9335 11.5976 19.6965 9.81081 15.2224 9.81081C14.4817 9.81081 13.6669 9.88589 12.778 10.036C12.541 10.0961 12.4224 10.2462 12.4224 10.4865ZM7.53355 37.3333C6.85207 37.3333 6.25947 37.0781 5.75577 36.5676C5.25207 36.0571 5.00021 35.4565 5.00021 34.7658V7.24324C5.00021 6.52252 5.23725 5.87688 5.71132 5.30631C6.1854 4.73573 6.77799 4.42042 7.4891 4.36036C10.0076 4.12012 12.4373 4 14.778 4C24.2595 4 29.0002 7.57357 29.0002 14.7207C29.0002 18.5946 27.8891 21.5375 25.6669 23.5495C23.4743 25.5315 20.2447 26.5225 15.978 26.5225C14.8521 26.5225 13.8002 26.4775 12.8224 26.3874C12.5558 26.3874 12.4224 26.5075 12.4224 26.7477V34.7658C12.4224 35.4565 12.1706 36.0571 11.6669 36.5676C11.1632 37.0781 10.5706 37.3333 9.8891 37.3333H7.53355Z" fill="#07B53B"/>
<ellipse cx="19.0002" cy="5.33333" rx="4.66667" ry="5.33333" fill="white"/>
<ellipse cx="17.0002" cy="5.33331" rx="2.66667" ry="4" fill="#0F0F0F"/>
<ellipse cx="8.33354" cy="5.33333" rx="4.66667" ry="5.33333" fill="white"/>
<ellipse cx="6.33354" cy="5.33331" rx="2.66667" ry="4" fill="#0F0F0F"/>
<path d="M1.00021 14.6667C1.00021 14.6667 1.66688 16 5.00021 16C8.33355 16 9.00021 14.6667 9.00021 14.6667" stroke="#FD392B" stroke-width="2" stroke-linecap="round"/>
</svg>
