<svg width="24" height="33" viewBox="-5 -5 34 43" fill="none" xmlns="http://www.w3.org/2000/svg">
<path d="M7.42222 6.42162V16.1432C7.42222 16.3513 7.55556 16.4851 7.82222 16.5446C8.82963 16.6635 9.62963 16.723 10.2222 16.723C12.3556 16.723 14 16.2324 15.1556 15.2513C16.3407 14.2405 16.9333 12.8432 16.9333 11.0595C16.9333 7.52162 14.6963 5.7527 10.2222 5.7527C9.48148 5.7527 8.66667 5.82703 7.77778 5.97568C7.54074 6.03513 7.42222 6.18378 7.42222 6.42162ZM2.53333 33C1.85185 33 1.25926 32.7473 0.755555 32.2419C0.251852 31.7365 0 31.1419 0 30.4581V3.21081C0 2.4973 0.237037 1.85811 0.711111 1.29324C1.18518 0.728377 1.77778 0.416216 2.48889 0.356755C5.00741 0.118919 7.43704 0 9.77778 0C19.2593 0 24 3.53784 24 10.6135C24 14.4486 22.8889 17.3622 20.6667 19.3541C18.4741 21.3162 15.2444 22.2973 10.9778 22.2973C9.85185 22.2973 8.8 22.2527 7.82222 22.1635C7.55556 22.1635 7.42222 22.2824 7.42222 22.5203V30.4581C7.42222 31.1419 7.17037 31.7365 6.66667 32.2419C6.16296 32.7473 5.57037 33 4.88889 33H2.53333Z" fill="#07B53B"/>
</svg>
