<svg width="125" height="35" viewBox="0 0 125 35" fill="none" xmlns="http://www.w3.org/2000/svg">
<path d="M51.5855 17.36C51.1375 16.6693 50.4468 16.324 49.5135 16.324C48.5802 16.324 47.8802 16.6693 47.4135 17.36C46.9655 18.0507 46.7415 19.1707 46.7415 20.72C46.7415 22.2693 46.9655 23.3893 47.4135 24.08C47.8802 24.7707 48.5802 25.116 49.5135 25.116C50.4468 25.116 51.1375 24.7707 51.5855 24.08C52.0522 23.3893 52.2855 22.2693 52.2855 20.72C52.2855 19.1707 52.0522 18.0507 51.5855 17.36ZM54.9175 26.292C53.6295 27.6173 51.8282 28.28 49.5135 28.28C47.1988 28.28 45.3975 27.6173 44.1095 26.292C42.8215 24.9667 42.1775 23.1093 42.1775 20.72C42.1775 18.3307 42.8215 16.4733 44.1095 15.148C45.3975 13.8227 47.1988 13.16 49.5135 13.16C51.8282 13.16 53.6295 13.8227 54.9175 15.148C56.2055 16.4733 56.8495 18.3307 56.8495 20.72C56.8495 23.1093 56.2055 24.9667 54.9175 26.292Z" fill="#0F0F0F"/>
<path d="M36.0246 28.28C33.6166 28.28 31.7686 27.6453 30.4806 26.376C29.1926 25.1067 28.5486 23.2213 28.5486 20.72C28.5486 18.2747 29.1646 16.408 30.3966 15.12C31.6473 13.8133 33.4299 13.16 35.7446 13.16C36.5099 13.16 37.5273 13.244 38.7966 13.412C39.2633 13.4867 39.6366 13.7013 39.9166 14.056C40.2153 14.392 40.3646 14.7933 40.3646 15.26V15.54C40.3646 15.932 40.2059 16.2493 39.8886 16.492C39.5713 16.7347 39.2166 16.8187 38.8246 16.744C38.0593 16.6133 37.2659 16.548 36.4446 16.548C35.3806 16.548 34.5872 16.884 34.0646 17.556C33.5606 18.2093 33.3086 19.264 33.3086 20.72C33.3086 22.2133 33.5792 23.2867 34.1206 23.94C34.6806 24.5747 35.5486 24.892 36.7246 24.892C37.6019 24.892 38.3859 24.8173 39.0766 24.668C39.4686 24.5747 39.8139 24.6493 40.1126 24.892C40.4299 25.1347 40.5886 25.452 40.5886 25.844V26.124C40.5886 26.5907 40.4392 27.0107 40.1406 27.384C39.8419 27.7387 39.4686 27.9533 39.0206 28.028C37.9939 28.196 36.9953 28.28 36.0246 28.28Z" fill="#0F0F0F"/>
<path d="M21.9809 28C21.5516 28 21.1782 27.8413 20.8609 27.524C20.5436 27.2067 20.3849 26.8333 20.3849 26.404V15.036C20.3849 14.6067 20.5436 14.2333 20.8609 13.916C21.1782 13.5987 21.5516 13.44 21.9809 13.44H23.5489C23.9782 13.44 24.3516 13.5987 24.6689 13.916C24.9862 14.2333 25.1449 14.6067 25.1449 15.036V26.404C25.1449 26.8333 24.9862 27.2067 24.6689 27.524C24.3516 27.8413 23.9782 28 23.5489 28H21.9809ZM21.9809 10.64C21.5516 10.64 21.1782 10.4813 20.8609 10.164C20.5436 9.84667 20.3849 9.47333 20.3849 9.044V8.596C20.3849 8.16667 20.5436 7.79333 20.8609 7.476C21.1782 7.15867 21.5516 7 21.9809 7H23.5489C23.9782 7 24.3516 7.15867 24.6689 7.476C24.9862 7.79333 25.1449 8.16667 25.1449 8.596V9.044C25.1449 9.47333 24.9862 9.84667 24.6689 10.164C24.3516 10.4813 23.9782 10.64 23.5489 10.64H21.9809Z" fill="#0F0F0F"/>
<path d="M5.56667 7.86486V15.2297C5.56667 15.3874 5.66667 15.4887 5.86667 15.5338C6.62222 15.6239 7.22222 15.6689 7.66667 15.6689C9.26667 15.6689 10.5 15.2973 11.3667 14.5541C12.2556 13.7883 12.7 12.7297 12.7 11.3784C12.7 8.6982 11.0222 7.35811 7.66667 7.35811C7.11111 7.35811 6.5 7.41441 5.83333 7.52703C5.65556 7.57207 5.56667 7.68468 5.56667 7.86486ZM1.9 28C1.38889 28 0.944444 27.8086 0.566666 27.4257C0.188889 27.0428 0 26.5923 0 26.0743V5.43243C0 4.89189 0.177778 4.40766 0.533333 3.97973C0.888889 3.5518 1.33333 3.31531 1.86667 3.27027C3.75556 3.09009 5.57778 3 7.33333 3C14.4444 3 18 5.68018 18 11.0405C18 13.9459 17.1667 16.1532 15.5 17.6622C13.8556 19.1486 11.4333 19.8919 8.23333 19.8919C7.38889 19.8919 6.6 19.8581 5.86667 19.7905C5.66667 19.7905 5.56667 19.8806 5.56667 20.0608V26.0743C5.56667 26.5923 5.37778 27.0428 5 27.4257C4.62222 27.8086 4.17778 28 3.66667 28H1.9Z" fill="#0F0F0F"/>
<path d="M116.925 16.52C115.152 16.52 114.265 17.8267 114.265 20.44C114.265 21.7467 114.498 22.7267 114.965 23.38C115.45 24.0333 116.104 24.36 116.925 24.36C117.653 24.36 118.278 24.1173 118.801 23.632C119.324 23.128 119.585 22.5493 119.585 21.896V19.18C119.585 18.4333 119.324 17.808 118.801 17.304C118.278 16.7813 117.653 16.52 116.925 16.52ZM115.441 27.72C113.817 27.72 112.473 27.076 111.409 25.788C110.364 24.4813 109.841 22.6987 109.841 20.44C109.841 18.1253 110.345 16.3333 111.353 15.064C112.361 13.7947 113.724 13.16 115.441 13.16C117.084 13.16 118.493 13.8507 119.669 15.232L119.725 15.288C119.744 15.288 119.753 15.2787 119.753 15.26V15.036C119.772 14.588 119.94 14.2147 120.257 13.916C120.574 13.5987 120.957 13.44 121.405 13.44H122.441C122.87 13.44 123.244 13.5987 123.561 13.916C123.878 14.2333 124.037 14.6067 124.037 15.036V26.74C124.037 29.26 123.337 31.1733 121.937 32.48C120.556 33.7867 118.549 34.44 115.917 34.44C114.797 34.44 113.789 34.3653 112.893 34.216C112.445 34.1413 112.072 33.9173 111.773 33.544C111.474 33.1707 111.325 32.7507 111.325 32.284V31.724C111.325 31.3507 111.484 31.052 111.801 30.828C112.118 30.604 112.464 30.5387 112.837 30.632C113.845 30.8747 114.806 30.996 115.721 30.996C117.065 30.996 118.045 30.6693 118.661 30.016C119.277 29.3813 119.585 28.308 119.585 26.796V26.012C119.585 25.9933 119.576 25.984 119.557 25.984C119.538 25.984 119.52 25.9933 119.501 26.012C118.437 27.1507 117.084 27.72 115.441 27.72Z" fill="#07B53B"/>
<path d="M102.429 17.36C101.981 16.6693 101.291 16.324 100.357 16.324C99.4239 16.324 98.7239 16.6693 98.2572 17.36C97.8092 18.0507 97.5852 19.1707 97.5852 20.72C97.5852 22.2693 97.8092 23.3893 98.2572 24.08C98.7239 24.7707 99.4239 25.116 100.357 25.116C101.291 25.116 101.981 24.7707 102.429 24.08C102.896 23.3893 103.129 22.2693 103.129 20.72C103.129 19.1707 102.896 18.0507 102.429 17.36ZM105.761 26.292C104.473 27.6173 102.672 28.28 100.357 28.28C98.0426 28.28 96.2412 27.6173 94.9532 26.292C93.6652 24.9667 93.0212 23.1093 93.0212 20.72C93.0212 18.3307 93.6652 16.4733 94.9532 15.148C96.2412 13.8227 98.0426 13.16 100.357 13.16C102.672 13.16 104.473 13.8227 105.761 15.148C107.049 16.4733 107.693 18.3307 107.693 20.72C107.693 23.1093 107.049 24.9667 105.761 26.292Z" fill="#07B53B"/>
<path d="M82.9794 28C82.55 28 82.1767 27.8413 81.8594 27.524C81.5607 27.2067 81.4114 26.8333 81.4114 26.404V15.036C81.4114 14.6067 81.5607 14.2333 81.8594 13.916C82.1767 13.5987 82.55 13.44 82.9794 13.44H84.3514C84.7807 13.44 85.1447 13.5987 85.4434 13.916C85.7607 14.2333 85.9194 14.6067 85.9194 15.036V16.212C85.9194 16.2307 85.9287 16.24 85.9474 16.24C85.9847 16.24 86.0034 16.2307 86.0034 16.212C87.1607 14.6627 88.7754 13.7573 90.8474 13.496C91.2767 13.44 91.6407 13.5707 91.9394 13.888C92.2567 14.2053 92.4154 14.588 92.4154 15.036V15.26C92.4154 15.6893 92.2567 16.0627 91.9394 16.38C91.6407 16.6973 91.2674 16.8747 90.8194 16.912C89.3074 17.08 88.1314 17.6027 87.2914 18.48C86.47 19.3387 86.0594 20.4587 86.0594 21.84V26.404C86.0594 26.8333 85.9007 27.2067 85.5834 27.524C85.2847 27.8413 84.9207 28 84.4914 28H82.9794Z" fill="#07B53B"/>
<path d="M67.5667 7.86486V15.2297C67.5667 15.3874 67.6667 15.4887 67.8667 15.5338C68.6222 15.6239 69.2222 15.6689 69.6667 15.6689C71.2667 15.6689 72.5 15.2973 73.3667 14.5541C74.2556 13.7883 74.7 12.7297 74.7 11.3784C74.7 8.6982 73.0222 7.35811 69.6667 7.35811C69.1111 7.35811 68.5 7.41441 67.8333 7.52703C67.6556 7.57207 67.5667 7.68468 67.5667 7.86486ZM63.9 28C63.3889 28 62.9444 27.8086 62.5667 27.4257C62.1889 27.0428 62 26.5923 62 26.0743V5.43243C62 4.89189 62.1778 4.40766 62.5333 3.97973C62.8889 3.5518 63.3333 3.31531 63.8667 3.27027C65.7556 3.09009 67.5778 3 69.3333 3C76.4444 3 80 5.68018 80 11.0405C80 13.9459 79.1667 16.1532 77.5 17.6622C75.8556 19.1486 73.4333 19.8919 70.2333 19.8919C69.3889 19.8919 68.6 19.8581 67.8667 19.7905C67.6667 19.7905 67.5667 19.8806 67.5667 20.0608V26.0743C67.5667 26.5923 67.3778 27.0428 67 27.4257C66.6222 27.8086 66.1778 28 65.6667 28H63.9Z" fill="#07B53B"/>
<ellipse cx="72.5" cy="4" rx="3.5" ry="4" fill="white"/>
<ellipse cx="71" cy="4" rx="2" ry="3" fill="#0F0F0F"/>
<ellipse cx="64.5" cy="4" rx="3.5" ry="4" fill="white"/>
<ellipse cx="63" cy="4" rx="2" ry="3" fill="#0F0F0F"/>
<path d="M59 11C59 11 59.5 12 62 12C64.5 12 65 11 65 11" stroke="#FD392B" stroke-width="2" stroke-linecap="round"/>
</svg>
