<svg width="123" height="28" viewBox="0 0 123 28" fill="none" xmlns="http://www.w3.org/2000/svg">
<path d="M50.5855 10.36C50.1375 9.66934 49.4468 9.324 48.5135 9.324C47.5802 9.324 46.8802 9.66934 46.4135 10.36C45.9655 11.0507 45.7415 12.1707 45.7415 13.72C45.7415 15.2693 45.9655 16.3893 46.4135 17.08C46.8802 17.7707 47.5802 18.116 48.5135 18.116C49.4468 18.116 50.1375 17.7707 50.5855 17.08C51.0522 16.3893 51.2855 15.2693 51.2855 13.72C51.2855 12.1707 51.0522 11.0507 50.5855 10.36ZM53.9175 19.292C52.6295 20.6173 50.8282 21.28 48.5135 21.28C46.1988 21.28 44.3975 20.6173 43.1095 19.292C41.8215 17.9667 41.1775 16.1093 41.1775 13.72C41.1775 11.3307 41.8215 9.47334 43.1095 8.148C44.3975 6.82267 46.1988 6.16 48.5135 6.16C50.8282 6.16 52.6295 6.82267 53.9175 8.148C55.2055 9.47334 55.8495 11.3307 55.8495 13.72C55.8495 16.1093 55.2055 17.9667 53.9175 19.292Z" fill="#0F0F0F"/>
<path d="M34.0246 21.28C31.6166 21.28 29.7686 20.6453 28.4806 19.376C27.1926 18.1067 26.5486 16.2213 26.5486 13.72C26.5486 11.2747 27.1646 9.408 28.3966 8.12C29.6473 6.81334 31.4299 6.16 33.7446 6.16C34.5099 6.16 35.5273 6.244 36.7966 6.412C37.2633 6.48667 37.6366 6.70134 37.9166 7.056C38.2153 7.392 38.3646 7.79334 38.3646 8.26V8.54C38.3646 8.932 38.2059 9.24934 37.8886 9.492C37.5713 9.73467 37.2166 9.81867 36.8246 9.744C36.0593 9.61334 35.2659 9.548 34.4446 9.548C33.3806 9.548 32.5873 9.884 32.0646 10.556C31.5606 11.2093 31.3086 12.264 31.3086 13.72C31.3086 15.2133 31.5793 16.2867 32.1206 16.94C32.6806 17.5747 33.5486 17.892 34.7246 17.892C35.6019 17.892 36.3859 17.8173 37.0766 17.668C37.4686 17.5747 37.8139 17.6493 38.1126 17.892C38.4299 18.1347 38.5886 18.452 38.5886 18.844V19.124C38.5886 19.5907 38.4393 20.0107 38.1406 20.384C37.8419 20.7387 37.4686 20.9533 37.0206 21.028C35.9939 21.196 34.9953 21.28 34.0246 21.28Z" fill="#0F0F0F"/>
<path d="M19.9809 21C19.5515 21 19.1782 20.8413 18.8608 20.524C18.5435 20.2067 18.3848 19.8333 18.3848 19.404V8.036C18.3848 7.60667 18.5435 7.23333 18.8608 6.916C19.1782 6.59867 19.5515 6.44 19.9809 6.44H21.5488C21.9782 6.44 22.3515 6.59867 22.6688 6.916C22.9862 7.23333 23.1448 7.60667 23.1448 8.036V19.404C23.1448 19.8333 22.9862 20.2067 22.6688 20.524C22.3515 20.8413 21.9782 21 21.5488 21H19.9809ZM19.9809 3.64C19.5515 3.64 19.1782 3.48133 18.8608 3.164C18.5435 2.84667 18.3848 2.47333 18.3848 2.044V1.596C18.3848 1.16667 18.5435 0.793334 18.8608 0.476001C19.1782 0.158667 19.5515 0 19.9809 0H21.5488C21.9782 0 22.3515 0.158667 22.6688 0.476001C22.9862 0.793334 23.1448 1.16667 23.1448 1.596V2.044C23.1448 2.47333 22.9862 2.84667 22.6688 3.164C22.3515 3.48133 21.9782 3.64 21.5488 3.64H19.9809Z" fill="#0F0F0F"/>
<path d="M4.676 4.312V10.416C4.676 10.5467 4.76 10.6307 4.928 10.668C5.56267 10.7427 6.06667 10.78 6.44 10.78C7.784 10.78 8.82 10.472 9.548 9.856C10.2947 9.22133 10.668 8.344 10.668 7.224C10.668 5.00267 9.25867 3.892 6.44 3.892C5.97333 3.892 5.46 3.93867 4.9 4.032C4.75067 4.06933 4.676 4.16266 4.676 4.312ZM1.596 21C1.16667 21 0.793333 20.8413 0.476 20.524C0.158667 20.2067 0 19.8333 0 19.404V2.296C0 1.848 0.149333 1.44666 0.448 1.092C0.746667 0.737332 1.12 0.541332 1.568 0.503998C3.15467 0.354665 4.68533 0.279999 6.16 0.279999C12.1333 0.279999 15.12 2.50133 15.12 6.944C15.12 9.352 14.42 11.1813 13.02 12.432C11.6387 13.664 9.604 14.28 6.916 14.28C6.20667 14.28 5.544 14.252 4.928 14.196C4.76 14.196 4.676 14.2707 4.676 14.42V19.404C4.676 19.8333 4.51733 20.2067 4.2 20.524C3.88267 20.8413 3.50933 21 3.08 21H1.596Z" fill="#0F0F0F"/>
<path d="M114.925 9.52C113.152 9.52 112.265 10.8267 112.265 13.44C112.265 14.7467 112.498 15.7267 112.965 16.38C113.45 17.0333 114.104 17.36 114.925 17.36C115.653 17.36 116.278 17.1173 116.801 16.632C117.324 16.128 117.585 15.5493 117.585 14.896V12.18C117.585 11.4333 117.324 10.808 116.801 10.304C116.278 9.78134 115.653 9.52 114.925 9.52ZM113.441 20.72C111.817 20.72 110.473 20.076 109.409 18.788C108.364 17.4813 107.841 15.6987 107.841 13.44C107.841 11.1253 108.345 9.33334 109.353 8.064C110.361 6.79467 111.724 6.16 113.441 6.16C115.084 6.16 116.493 6.85067 117.669 8.232L117.725 8.288C117.744 8.288 117.753 8.27867 117.753 8.26V8.036C117.772 7.588 117.94 7.21467 118.257 6.916C118.574 6.59867 118.957 6.44 119.405 6.44H120.441C120.87 6.44 121.244 6.59867 121.561 6.916C121.878 7.23334 122.037 7.60667 122.037 8.036V19.74C122.037 22.26 121.337 24.1733 119.937 25.48C118.556 26.7867 116.549 27.44 113.917 27.44C112.797 27.44 111.789 27.3653 110.893 27.216C110.445 27.1413 110.072 26.9173 109.773 26.544C109.474 26.1707 109.325 25.7507 109.325 25.284V24.724C109.325 24.3507 109.484 24.052 109.801 23.828C110.118 23.604 110.464 23.5387 110.837 23.632C111.845 23.8747 112.806 23.996 113.721 23.996C115.065 23.996 116.045 23.6693 116.661 23.016C117.277 22.3813 117.585 21.308 117.585 19.796V19.012C117.585 18.9933 117.576 18.984 117.557 18.984C117.538 18.984 117.52 18.9933 117.501 19.012C116.437 20.1507 115.084 20.72 113.441 20.72Z" fill="#07B53B"/>
<path d="M100.429 10.36C99.9812 9.66934 99.2906 9.324 98.3572 9.324C97.4239 9.324 96.7239 9.66934 96.2572 10.36C95.8092 11.0507 95.5852 12.1707 95.5852 13.72C95.5852 15.2693 95.8092 16.3893 96.2572 17.08C96.7239 17.7707 97.4239 18.116 98.3572 18.116C99.2906 18.116 99.9812 17.7707 100.429 17.08C100.896 16.3893 101.129 15.2693 101.129 13.72C101.129 12.1707 100.896 11.0507 100.429 10.36ZM103.761 19.292C102.473 20.6173 100.672 21.28 98.3572 21.28C96.0426 21.28 94.2412 20.6173 92.9532 19.292C91.6652 17.9667 91.0212 16.1093 91.0212 13.72C91.0212 11.3307 91.6652 9.47334 92.9532 8.148C94.2412 6.82267 96.0426 6.16 98.3572 6.16C100.672 6.16 102.473 6.82267 103.761 8.148C105.049 9.47334 105.693 11.3307 105.693 13.72C105.693 16.1093 105.049 17.9667 103.761 19.292Z" fill="#07B53B"/>
<path d="M79.9794 21C79.5501 21 79.1767 20.8413 78.8594 20.524C78.5607 20.2067 78.4114 19.8333 78.4114 19.404V8.036C78.4114 7.60667 78.5607 7.23334 78.8594 6.916C79.1767 6.59867 79.5501 6.44 79.9794 6.44H81.3514C81.7807 6.44 82.1447 6.59867 82.4434 6.916C82.7607 7.23334 82.9194 7.60667 82.9194 8.036V9.212C82.9194 9.23067 82.9287 9.24 82.9474 9.24C82.9847 9.24 83.0034 9.23067 83.0034 9.212C84.1607 7.66267 85.7754 6.75734 87.8474 6.496C88.2767 6.44 88.6407 6.57067 88.9394 6.888C89.2567 7.20534 89.4154 7.588 89.4154 8.036V8.26C89.4154 8.68934 89.2567 9.06267 88.9394 9.38C88.6407 9.69734 88.2674 9.87467 87.8194 9.912C86.3074 10.08 85.1314 10.6027 84.2914 11.48C83.4701 12.3387 83.0594 13.4587 83.0594 14.84V19.404C83.0594 19.8333 82.9007 20.2067 82.5834 20.524C82.2847 20.8413 81.9207 21 81.4914 21H79.9794Z" fill="#07B53B"/>
<path d="M65.676 4.312V10.416C65.676 10.5467 65.76 10.6307 65.928 10.668C66.5627 10.7427 67.0667 10.78 67.44 10.78C68.784 10.78 69.82 10.472 70.548 9.856C71.2947 9.22133 71.668 8.344 71.668 7.224C71.668 5.00267 70.2587 3.892 67.44 3.892C66.9733 3.892 66.46 3.93867 65.9 4.032C65.7507 4.06933 65.676 4.16266 65.676 4.312ZM62.596 21C62.1667 21 61.7933 20.8413 61.476 20.524C61.1587 20.2067 61 19.8333 61 19.404V2.296C61 1.848 61.1493 1.44666 61.448 1.092C61.7467 0.737332 62.12 0.541332 62.568 0.503998C64.1547 0.354665 65.6853 0.279999 67.16 0.279999C73.1333 0.279999 76.12 2.50133 76.12 6.944C76.12 9.352 75.42 11.1813 74.02 12.432C72.6387 13.664 70.604 14.28 67.916 14.28C67.2067 14.28 66.544 14.252 65.928 14.196C65.76 14.196 65.676 14.2707 65.676 14.42V19.404C65.676 19.8333 65.5173 20.2067 65.2 20.524C64.8827 20.8413 64.5093 21 64.08 21H62.596Z" fill="#07B53B"/>
</svg>
